<mxfile host="Electron" agent="Mozilla/5.0 (Windows NT 10.0; Win64; x64) AppleWebKit/537.36 (KHTML, like Gecko) draw.io/28.1.2 Chrome/138.0.7204.243 Electron/37.4.0 Safari/537.36" version="28.1.2">
  <diagram name="Page-1" id="nLHSv5qawO0i9cInuJ0M">
    <mxGraphModel dx="1828" dy="-852" grid="1" gridSize="10" guides="1" tooltips="1" connect="1" arrows="1" fold="1" page="1" pageScale="1" pageWidth="1100" pageHeight="850" math="0" shadow="0">
      <root>
        <mxCell id="0" />
        <mxCell id="1" parent="0" />
        <mxCell id="fC1UOFZK2BJRZbZUkwg1-1" value="EventStream" style="swimlane;fontStyle=1;align=center;verticalAlign=top;childLayout=stackLayout;horizontal=1;startSize=26;horizontalStack=0;resizeParent=1;resizeParentMax=0;resizeLast=0;collapsible=1;marginBottom=0;whiteSpace=wrap;html=1;" parent="1" vertex="1">
          <mxGeometry x="-620" y="1930" width="290" height="150" as="geometry" />
        </mxCell>
        <mxCell id="fC1UOFZK2BJRZbZUkwg1-2" value="+ partitions: dict" style="text;strokeColor=none;fillColor=none;align=left;verticalAlign=top;spacingLeft=4;spacingRight=4;overflow=hidden;rotatable=0;points=[[0,0.5],[1,0.5]];portConstraint=eastwest;whiteSpace=wrap;html=1;" parent="fC1UOFZK2BJRZbZUkwg1-1" vertex="1">
          <mxGeometry y="26" width="290" height="26" as="geometry" />
        </mxCell>
        <mxCell id="fC1UOFZK2BJRZbZUkwg1-3" value="" style="line;strokeWidth=1;fillColor=none;align=left;verticalAlign=middle;spacingTop=-1;spacingLeft=3;spacingRight=3;rotatable=0;labelPosition=right;points=[];portConstraint=eastwest;strokeColor=inherit;" parent="fC1UOFZK2BJRZbZUkwg1-1" vertex="1">
          <mxGeometry y="52" width="290" height="8" as="geometry" />
        </mxCell>
        <mxCell id="fC1UOFZK2BJRZbZUkwg1-4" value="&lt;p&gt;add_event(event, partition, stream_id)&lt;br class=&quot;soft-break&quot;&gt;subscribe(consumer, partition, stream_id)&lt;br class=&quot;soft-break&quot;&gt;dispatch()&lt;br class=&quot;soft-break&quot;&gt;stop()&lt;/p&gt;" style="text;strokeColor=none;fillColor=none;align=left;verticalAlign=top;spacingLeft=4;spacingRight=4;overflow=hidden;rotatable=0;points=[[0,0.5],[1,0.5]];portConstraint=eastwest;whiteSpace=wrap;html=1;" parent="fC1UOFZK2BJRZbZUkwg1-1" vertex="1">
          <mxGeometry y="60" width="290" height="90" as="geometry" />
        </mxCell>
        <mxCell id="fC1UOFZK2BJRZbZUkwg1-5" value="Client" style="swimlane;fontStyle=1;align=center;verticalAlign=top;childLayout=stackLayout;horizontal=1;startSize=26;horizontalStack=0;resizeParent=1;resizeParentMax=0;resizeLast=0;collapsible=1;marginBottom=0;whiteSpace=wrap;html=1;" parent="1" vertex="1">
          <mxGeometry x="-470" y="1770" width="160" height="80" as="geometry" />
        </mxCell>
        <mxCell id="fC1UOFZK2BJRZbZUkwg1-7" value="" style="line;strokeWidth=1;fillColor=none;align=left;verticalAlign=middle;spacingTop=-1;spacingLeft=3;spacingRight=3;rotatable=0;labelPosition=right;points=[];portConstraint=eastwest;strokeColor=inherit;" parent="fC1UOFZK2BJRZbZUkwg1-5" vertex="1">
          <mxGeometry y="26" width="160" height="8" as="geometry" />
        </mxCell>
        <mxCell id="fC1UOFZK2BJRZbZUkwg1-8" value="+ subscribe(topic)&lt;br class=&quot;soft-break&quot;&gt;+ publish(topic, payload)" style="text;strokeColor=none;fillColor=none;align=left;verticalAlign=top;spacingLeft=4;spacingRight=4;overflow=hidden;rotatable=0;points=[[0,0.5],[1,0.5]];portConstraint=eastwest;whiteSpace=wrap;html=1;" parent="fC1UOFZK2BJRZbZUkwg1-5" vertex="1">
          <mxGeometry y="34" width="160" height="46" as="geometry" />
        </mxCell>
        <mxCell id="fC1UOFZK2BJRZbZUkwg1-9" value="Server" style="swimlane;fontStyle=1;align=center;verticalAlign=top;childLayout=stackLayout;horizontal=1;startSize=26;horizontalStack=0;resizeParent=1;resizeParentMax=0;resizeLast=0;collapsible=1;marginBottom=0;whiteSpace=wrap;html=1;" parent="1" vertex="1">
          <mxGeometry x="-225" y="1770" width="160" height="80" as="geometry" />
        </mxCell>
        <mxCell id="fC1UOFZK2BJRZbZUkwg1-11" value="" style="line;strokeWidth=1;fillColor=none;align=left;verticalAlign=middle;spacingTop=-1;spacingLeft=3;spacingRight=3;rotatable=0;labelPosition=right;points=[];portConstraint=eastwest;strokeColor=inherit;" parent="fC1UOFZK2BJRZbZUkwg1-9" vertex="1">
          <mxGeometry y="26" width="160" height="8" as="geometry" />
        </mxCell>
        <mxCell id="fC1UOFZK2BJRZbZUkwg1-12" value="+&amp;nbsp;bind_publisher()&lt;div&gt;+ bind_collector()&lt;/div&gt;" style="text;strokeColor=none;fillColor=none;align=left;verticalAlign=top;spacingLeft=4;spacingRight=4;overflow=hidden;rotatable=0;points=[[0,0.5],[1,0.5]];portConstraint=eastwest;whiteSpace=wrap;html=1;" parent="fC1UOFZK2BJRZbZUkwg1-9" vertex="1">
          <mxGeometry y="34" width="160" height="46" as="geometry" />
        </mxCell>
        <mxCell id="fC1UOFZK2BJRZbZUkwg1-13" value="ImputerManager" style="swimlane;fontStyle=1;align=center;verticalAlign=top;childLayout=stackLayout;horizontal=1;startSize=26;horizontalStack=0;resizeParent=1;resizeParentMax=0;resizeLast=0;collapsible=1;marginBottom=0;whiteSpace=wrap;html=1;" parent="1" vertex="1">
          <mxGeometry x="-820" y="1780" width="160" height="86" as="geometry" />
        </mxCell>
        <mxCell id="fC1UOFZK2BJRZbZUkwg1-14" value="+ imputers: dict" style="text;strokeColor=none;fillColor=none;align=left;verticalAlign=top;spacingLeft=4;spacingRight=4;overflow=hidden;rotatable=0;points=[[0,0.5],[1,0.5]];portConstraint=eastwest;whiteSpace=wrap;html=1;" parent="fC1UOFZK2BJRZbZUkwg1-13" vertex="1">
          <mxGeometry y="26" width="160" height="26" as="geometry" />
        </mxCell>
        <mxCell id="fC1UOFZK2BJRZbZUkwg1-15" value="" style="line;strokeWidth=1;fillColor=none;align=left;verticalAlign=middle;spacingTop=-1;spacingLeft=3;spacingRight=3;rotatable=0;labelPosition=right;points=[];portConstraint=eastwest;strokeColor=inherit;" parent="fC1UOFZK2BJRZbZUkwg1-13" vertex="1">
          <mxGeometry y="52" width="160" height="8" as="geometry" />
        </mxCell>
        <mxCell id="fC1UOFZK2BJRZbZUkwg1-16" value="+ initialize_imputers()" style="text;strokeColor=none;fillColor=none;align=left;verticalAlign=top;spacingLeft=4;spacingRight=4;overflow=hidden;rotatable=0;points=[[0,0.5],[1,0.5]];portConstraint=eastwest;whiteSpace=wrap;html=1;" parent="fC1UOFZK2BJRZbZUkwg1-13" vertex="1">
          <mxGeometry y="60" width="160" height="26" as="geometry" />
        </mxCell>
        <mxCell id="fC1UOFZK2BJRZbZUkwg1-69" style="edgeStyle=orthogonalEdgeStyle;rounded=0;orthogonalLoop=1;jettySize=auto;html=1;exitX=0.5;exitY=0;exitDx=0;exitDy=0;entryX=0.5;entryY=1;entryDx=0;entryDy=0;endArrow=diamond;endFill=1;" parent="1" source="fC1UOFZK2BJRZbZUkwg1-17" target="fC1UOFZK2BJRZbZUkwg1-13" edge="1">
          <mxGeometry relative="1" as="geometry" />
        </mxCell>
        <mxCell id="fC1UOFZK2BJRZbZUkwg1-108" value="0..*" style="edgeLabel;html=1;align=center;verticalAlign=middle;resizable=0;points=[];" parent="fC1UOFZK2BJRZbZUkwg1-69" vertex="1" connectable="0">
          <mxGeometry x="-0.8021" relative="1" as="geometry">
            <mxPoint as="offset" />
          </mxGeometry>
        </mxCell>
        <mxCell id="fC1UOFZK2BJRZbZUkwg1-109" value="1" style="edgeLabel;html=1;align=center;verticalAlign=middle;resizable=0;points=[];" parent="fC1UOFZK2BJRZbZUkwg1-69" vertex="1" connectable="0">
          <mxGeometry x="0.6889" relative="1" as="geometry">
            <mxPoint as="offset" />
          </mxGeometry>
        </mxCell>
        <mxCell id="fC1UOFZK2BJRZbZUkwg1-118" style="edgeStyle=orthogonalEdgeStyle;rounded=0;orthogonalLoop=1;jettySize=auto;html=1;exitX=0.5;exitY=1;exitDx=0;exitDy=0;entryX=0.5;entryY=0;entryDx=0;entryDy=0;endArrow=block;endFill=0;dashed=1;" parent="1" source="fC1UOFZK2BJRZbZUkwg1-17" target="fC1UOFZK2BJRZbZUkwg1-45" edge="1">
          <mxGeometry relative="1" as="geometry">
            <Array as="points">
              <mxPoint x="-755" y="2340" />
              <mxPoint x="-475" y="2340" />
            </Array>
          </mxGeometry>
        </mxCell>
        <mxCell id="fC1UOFZK2BJRZbZUkwg1-119" style="edgeStyle=orthogonalEdgeStyle;rounded=0;orthogonalLoop=1;jettySize=auto;html=1;exitX=0.25;exitY=1;exitDx=0;exitDy=0;entryX=0;entryY=0.5;entryDx=0;entryDy=0;endArrow=block;endFill=0;dashed=1;" parent="1" source="fC1UOFZK2BJRZbZUkwg1-17" target="fC1UOFZK2BJRZbZUkwg1-46" edge="1">
          <mxGeometry relative="1" as="geometry" />
        </mxCell>
        <mxCell id="fC1UOFZK2BJRZbZUkwg1-17" value="Imputer" style="swimlane;fontStyle=1;align=center;verticalAlign=top;childLayout=stackLayout;horizontal=1;startSize=26;horizontalStack=0;resizeParent=1;resizeParentMax=0;resizeLast=0;collapsible=1;marginBottom=0;whiteSpace=wrap;html=1;" parent="1" vertex="1">
          <mxGeometry x="-850" y="1950" width="190" height="100" as="geometry" />
        </mxCell>
        <mxCell id="fC1UOFZK2BJRZbZUkwg1-18" value="+ predictor: BasePredictor" style="text;strokeColor=none;fillColor=none;align=left;verticalAlign=top;spacingLeft=4;spacingRight=4;overflow=hidden;rotatable=0;points=[[0,0.5],[1,0.5]];portConstraint=eastwest;whiteSpace=wrap;html=1;" parent="fC1UOFZK2BJRZbZUkwg1-17" vertex="1">
          <mxGeometry y="26" width="190" height="26" as="geometry" />
        </mxCell>
        <mxCell id="fC1UOFZK2BJRZbZUkwg1-19" value="" style="line;strokeWidth=1;fillColor=none;align=left;verticalAlign=middle;spacingTop=-1;spacingLeft=3;spacingRight=3;rotatable=0;labelPosition=right;points=[];portConstraint=eastwest;strokeColor=inherit;" parent="fC1UOFZK2BJRZbZUkwg1-17" vertex="1">
          <mxGeometry y="52" width="190" height="8" as="geometry" />
        </mxCell>
        <mxCell id="fC1UOFZK2BJRZbZUkwg1-20" value="+ consumeEvent(event: Event&lt;span style=&quot;background-color: transparent; color: light-dark(rgb(0, 0, 0), rgb(255, 255, 255));&quot;&gt;)&lt;/span&gt;&lt;div&gt;&lt;span style=&quot;background-color: transparent; color: light-dark(rgb(0, 0, 0), rgb(255, 255, 255));&quot;&gt;+ generateEvent: Event&lt;/span&gt;&lt;/div&gt;" style="text;strokeColor=none;fillColor=none;align=left;verticalAlign=top;spacingLeft=4;spacingRight=4;overflow=hidden;rotatable=0;points=[[0,0.5],[1,0.5]];portConstraint=eastwest;whiteSpace=wrap;html=1;" parent="fC1UOFZK2BJRZbZUkwg1-17" vertex="1">
          <mxGeometry y="60" width="190" height="40" as="geometry" />
        </mxCell>
        <mxCell id="fC1UOFZK2BJRZbZUkwg1-21" value="BasePredictor" style="swimlane;fontStyle=1;align=center;verticalAlign=top;childLayout=stackLayout;horizontal=1;startSize=26;horizontalStack=0;resizeParent=1;resizeParentMax=0;resizeLast=0;collapsible=1;marginBottom=0;whiteSpace=wrap;html=1;" parent="1" vertex="1">
          <mxGeometry x="-1070" y="1950" width="160" height="90" as="geometry" />
        </mxCell>
        <mxCell id="fC1UOFZK2BJRZbZUkwg1-23" value="" style="line;strokeWidth=1;fillColor=none;align=left;verticalAlign=middle;spacingTop=-1;spacingLeft=3;spacingRight=3;rotatable=0;labelPosition=right;points=[];portConstraint=eastwest;strokeColor=inherit;" parent="fC1UOFZK2BJRZbZUkwg1-21" vertex="1">
          <mxGeometry y="26" width="160" height="8" as="geometry" />
        </mxCell>
        <mxCell id="fC1UOFZK2BJRZbZUkwg1-24" value="+ predict(): float&lt;div&gt;+ update(value): float&lt;/div&gt;&lt;div&gt;+ confidence(): float&lt;/div&gt;" style="text;strokeColor=none;fillColor=none;align=left;verticalAlign=top;spacingLeft=4;spacingRight=4;overflow=hidden;rotatable=0;points=[[0,0.5],[1,0.5]];portConstraint=eastwest;whiteSpace=wrap;html=1;" parent="fC1UOFZK2BJRZbZUkwg1-21" vertex="1">
          <mxGeometry y="34" width="160" height="56" as="geometry" />
        </mxCell>
        <mxCell id="fC1UOFZK2BJRZbZUkwg1-55" style="edgeStyle=orthogonalEdgeStyle;rounded=0;orthogonalLoop=1;jettySize=auto;html=1;exitX=0.5;exitY=1;exitDx=0;exitDy=0;entryX=0.5;entryY=0;entryDx=0;entryDy=0;endArrow=block;endFill=0;" parent="1" source="fC1UOFZK2BJRZbZUkwg1-25" target="fC1UOFZK2BJRZbZUkwg1-21" edge="1">
          <mxGeometry relative="1" as="geometry" />
        </mxCell>
        <mxCell id="fC1UOFZK2BJRZbZUkwg1-25" value="KalmanFilter" style="swimlane;fontStyle=1;align=center;verticalAlign=top;childLayout=stackLayout;horizontal=1;startSize=26;horizontalStack=0;resizeParent=1;resizeParentMax=0;resizeLast=0;collapsible=1;marginBottom=0;whiteSpace=wrap;html=1;" parent="1" vertex="1">
          <mxGeometry x="-1070" y="1780" width="160" height="60" as="geometry" />
        </mxCell>
        <mxCell id="fC1UOFZK2BJRZbZUkwg1-26" value="+ state: matrix" style="text;strokeColor=none;fillColor=none;align=left;verticalAlign=top;spacingLeft=4;spacingRight=4;overflow=hidden;rotatable=0;points=[[0,0.5],[1,0.5]];portConstraint=eastwest;whiteSpace=wrap;html=1;" parent="fC1UOFZK2BJRZbZUkwg1-25" vertex="1">
          <mxGeometry y="26" width="160" height="26" as="geometry" />
        </mxCell>
        <mxCell id="fC1UOFZK2BJRZbZUkwg1-27" value="" style="line;strokeWidth=1;fillColor=none;align=left;verticalAlign=middle;spacingTop=-1;spacingLeft=3;spacingRight=3;rotatable=0;labelPosition=right;points=[];portConstraint=eastwest;strokeColor=inherit;" parent="fC1UOFZK2BJRZbZUkwg1-25" vertex="1">
          <mxGeometry y="52" width="160" height="8" as="geometry" />
        </mxCell>
        <mxCell id="fC1UOFZK2BJRZbZUkwg1-29" value="StreamManager" style="swimlane;fontStyle=1;align=center;verticalAlign=top;childLayout=stackLayout;horizontal=1;startSize=26;horizontalStack=0;resizeParent=1;resizeParentMax=0;resizeLast=0;collapsible=1;marginBottom=0;whiteSpace=wrap;html=1;" parent="1" vertex="1">
          <mxGeometry x="-370" y="2145" width="160" height="86" as="geometry" />
        </mxCell>
        <mxCell id="fC1UOFZK2BJRZbZUkwg1-30" value="+ streams: dict" style="text;strokeColor=none;fillColor=none;align=left;verticalAlign=top;spacingLeft=4;spacingRight=4;overflow=hidden;rotatable=0;points=[[0,0.5],[1,0.5]];portConstraint=eastwest;whiteSpace=wrap;html=1;" parent="fC1UOFZK2BJRZbZUkwg1-29" vertex="1">
          <mxGeometry y="26" width="160" height="26" as="geometry" />
        </mxCell>
        <mxCell id="fC1UOFZK2BJRZbZUkwg1-31" value="" style="line;strokeWidth=1;fillColor=none;align=left;verticalAlign=middle;spacingTop=-1;spacingLeft=3;spacingRight=3;rotatable=0;labelPosition=right;points=[];portConstraint=eastwest;strokeColor=inherit;" parent="fC1UOFZK2BJRZbZUkwg1-29" vertex="1">
          <mxGeometry y="52" width="160" height="8" as="geometry" />
        </mxCell>
        <mxCell id="fC1UOFZK2BJRZbZUkwg1-32" value="+ start()" style="text;strokeColor=none;fillColor=none;align=left;verticalAlign=top;spacingLeft=4;spacingRight=4;overflow=hidden;rotatable=0;points=[[0,0.5],[1,0.5]];portConstraint=eastwest;whiteSpace=wrap;html=1;" parent="fC1UOFZK2BJRZbZUkwg1-29" vertex="1">
          <mxGeometry y="60" width="160" height="26" as="geometry" />
        </mxCell>
        <mxCell id="fC1UOFZK2BJRZbZUkwg1-64" style="edgeStyle=orthogonalEdgeStyle;rounded=0;orthogonalLoop=1;jettySize=auto;html=1;exitX=0.25;exitY=1;exitDx=0;exitDy=0;entryX=0.5;entryY=0;entryDx=0;entryDy=0;endArrow=block;endFill=0;dashed=1;" parent="1" source="fC1UOFZK2BJRZbZUkwg1-33" target="fC1UOFZK2BJRZbZUkwg1-46" edge="1">
          <mxGeometry relative="1" as="geometry" />
        </mxCell>
        <mxCell id="fC1UOFZK2BJRZbZUkwg1-33" value="Logger" style="swimlane;fontStyle=1;align=center;verticalAlign=top;childLayout=stackLayout;horizontal=1;startSize=26;horizontalStack=0;resizeParent=1;resizeParentMax=0;resizeLast=0;collapsible=1;marginBottom=0;whiteSpace=wrap;html=1;" parent="1" vertex="1">
          <mxGeometry x="-660" y="2145" width="190" height="100" as="geometry" />
        </mxCell>
        <mxCell id="fC1UOFZK2BJRZbZUkwg1-34" value="+ entries: list[dict]" style="text;strokeColor=none;fillColor=none;align=left;verticalAlign=top;spacingLeft=4;spacingRight=4;overflow=hidden;rotatable=0;points=[[0,0.5],[1,0.5]];portConstraint=eastwest;whiteSpace=wrap;html=1;" parent="fC1UOFZK2BJRZbZUkwg1-33" vertex="1">
          <mxGeometry y="26" width="190" height="26" as="geometry" />
        </mxCell>
        <mxCell id="fC1UOFZK2BJRZbZUkwg1-35" value="" style="line;strokeWidth=1;fillColor=none;align=left;verticalAlign=middle;spacingTop=-1;spacingLeft=3;spacingRight=3;rotatable=0;labelPosition=right;points=[];portConstraint=eastwest;strokeColor=inherit;" parent="fC1UOFZK2BJRZbZUkwg1-33" vertex="1">
          <mxGeometry y="52" width="190" height="8" as="geometry" />
        </mxCell>
        <mxCell id="fC1UOFZK2BJRZbZUkwg1-36" value="&lt;div&gt;+&amp;nbsp;log_event(event: Event)&lt;/div&gt;+ consumeEvent(event: Event&lt;span style=&quot;color: light-dark(rgb(0, 0, 0), rgb(255, 255, 255)); background-color: transparent;&quot;&gt;)&lt;/span&gt;" style="text;strokeColor=none;fillColor=none;align=left;verticalAlign=top;spacingLeft=4;spacingRight=4;overflow=hidden;rotatable=0;points=[[0,0.5],[1,0.5]];portConstraint=eastwest;whiteSpace=wrap;html=1;" parent="fC1UOFZK2BJRZbZUkwg1-33" vertex="1">
          <mxGeometry y="60" width="190" height="40" as="geometry" />
        </mxCell>
        <mxCell id="fC1UOFZK2BJRZbZUkwg1-61" style="edgeStyle=orthogonalEdgeStyle;rounded=0;orthogonalLoop=1;jettySize=auto;html=1;exitX=0.5;exitY=1;exitDx=0;exitDy=0;entryX=1;entryY=0.25;entryDx=0;entryDy=0;endArrow=block;endFill=0;dashed=1;" parent="1" source="fC1UOFZK2BJRZbZUkwg1-37" target="fC1UOFZK2BJRZbZUkwg1-45" edge="1">
          <mxGeometry relative="1" as="geometry">
            <mxPoint x="-360" y="2475" as="targetPoint" />
          </mxGeometry>
        </mxCell>
        <mxCell id="fC1UOFZK2BJRZbZUkwg1-37" value="Stream" style="swimlane;fontStyle=1;align=center;verticalAlign=top;childLayout=stackLayout;horizontal=1;startSize=26;horizontalStack=0;resizeParent=1;resizeParentMax=0;resizeLast=0;collapsible=1;marginBottom=0;whiteSpace=wrap;html=1;" parent="1" vertex="1">
          <mxGeometry x="-370" y="2300" width="160" height="140" as="geometry" />
        </mxCell>
        <mxCell id="fC1UOFZK2BJRZbZUkwg1-38" value="+ stream_id: str&lt;div&gt;+ unit: str&lt;/div&gt;&lt;div&gt;+ datatype: str&lt;/div&gt;" style="text;strokeColor=none;fillColor=none;align=left;verticalAlign=top;spacingLeft=4;spacingRight=4;overflow=hidden;rotatable=0;points=[[0,0.5],[1,0.5]];portConstraint=eastwest;whiteSpace=wrap;html=1;" parent="fC1UOFZK2BJRZbZUkwg1-37" vertex="1">
          <mxGeometry y="26" width="160" height="54" as="geometry" />
        </mxCell>
        <mxCell id="fC1UOFZK2BJRZbZUkwg1-39" value="" style="line;strokeWidth=1;fillColor=none;align=left;verticalAlign=middle;spacingTop=-1;spacingLeft=3;spacingRight=3;rotatable=0;labelPosition=right;points=[];portConstraint=eastwest;strokeColor=inherit;" parent="fC1UOFZK2BJRZbZUkwg1-37" vertex="1">
          <mxGeometry y="80" width="160" height="8" as="geometry" />
        </mxCell>
        <mxCell id="fC1UOFZK2BJRZbZUkwg1-40" value="+ start(event_stream)&lt;div&gt;+ stop()&lt;/div&gt;&lt;div&gt;&lt;div&gt;&lt;span style=&quot;background-color: transparent; color: light-dark(rgb(0, 0, 0), rgb(255, 255, 255));&quot;&gt;+ generateEvent: Event&lt;/span&gt;&lt;/div&gt;&lt;/div&gt;" style="text;strokeColor=none;fillColor=none;align=left;verticalAlign=top;spacingLeft=4;spacingRight=4;overflow=hidden;rotatable=0;points=[[0,0.5],[1,0.5]];portConstraint=eastwest;whiteSpace=wrap;html=1;" parent="fC1UOFZK2BJRZbZUkwg1-37" vertex="1">
          <mxGeometry y="88" width="160" height="52" as="geometry" />
        </mxCell>
        <mxCell id="fC1UOFZK2BJRZbZUkwg1-45" value="«interface»&lt;br&gt;&lt;b&gt;EventGenerator&lt;/b&gt;" style="html=1;whiteSpace=wrap;" parent="1" vertex="1">
          <mxGeometry x="-530" y="2450" width="110" height="50" as="geometry" />
        </mxCell>
        <mxCell id="fC1UOFZK2BJRZbZUkwg1-46" value="«interface»&lt;br&gt;&lt;b&gt;EventConsumer&lt;/b&gt;" style="html=1;whiteSpace=wrap;" parent="1" vertex="1">
          <mxGeometry x="-670" y="2450" width="110" height="50" as="geometry" />
        </mxCell>
        <mxCell id="fC1UOFZK2BJRZbZUkwg1-62" style="edgeStyle=orthogonalEdgeStyle;rounded=0;orthogonalLoop=1;jettySize=auto;html=1;exitX=0.5;exitY=1;exitDx=0;exitDy=0;entryX=1;entryY=0.75;entryDx=0;entryDy=0;endArrow=block;endFill=0;dashed=1;" parent="1" source="fC1UOFZK2BJRZbZUkwg1-51" target="fC1UOFZK2BJRZbZUkwg1-45" edge="1">
          <mxGeometry relative="1" as="geometry">
            <mxPoint x="-360" y="2487.5" as="targetPoint" />
            <Array as="points">
              <mxPoint x="5" y="2488" />
            </Array>
          </mxGeometry>
        </mxCell>
        <mxCell id="fC1UOFZK2BJRZbZUkwg1-63" style="edgeStyle=orthogonalEdgeStyle;rounded=0;orthogonalLoop=1;jettySize=auto;html=1;exitX=0.75;exitY=1;exitDx=0;exitDy=0;entryX=0.75;entryY=1;entryDx=0;entryDy=0;endArrow=block;endFill=0;dashed=1;" parent="1" source="fC1UOFZK2BJRZbZUkwg1-51" target="fC1UOFZK2BJRZbZUkwg1-46" edge="1">
          <mxGeometry relative="1" as="geometry" />
        </mxCell>
        <mxCell id="fC1UOFZK2BJRZbZUkwg1-76" style="edgeStyle=orthogonalEdgeStyle;rounded=0;orthogonalLoop=1;jettySize=auto;html=1;exitX=0.5;exitY=0;exitDx=0;exitDy=0;entryX=1;entryY=0.5;entryDx=0;entryDy=0;" parent="1" source="fC1UOFZK2BJRZbZUkwg1-51" target="fC1UOFZK2BJRZbZUkwg1-4" edge="1">
          <mxGeometry relative="1" as="geometry">
            <mxPoint x="-270" y="2035" as="targetPoint" />
          </mxGeometry>
        </mxCell>
        <mxCell id="fC1UOFZK2BJRZbZUkwg1-51" value="CEPManager" style="swimlane;fontStyle=1;align=center;verticalAlign=top;childLayout=stackLayout;horizontal=1;startSize=26;horizontalStack=0;resizeParent=1;resizeParentMax=0;resizeLast=0;collapsible=1;marginBottom=0;whiteSpace=wrap;html=1;" parent="1" vertex="1">
          <mxGeometry x="-120" y="2057" width="250" height="140" as="geometry" />
        </mxCell>
        <mxCell id="fC1UOFZK2BJRZbZUkwg1-52" value="+&amp;nbsp;patterns: dict[str, Pattern]" style="text;strokeColor=none;fillColor=none;align=left;verticalAlign=top;spacingLeft=4;spacingRight=4;overflow=hidden;rotatable=0;points=[[0,0.5],[1,0.5]];portConstraint=eastwest;whiteSpace=wrap;html=1;" parent="fC1UOFZK2BJRZbZUkwg1-51" vertex="1">
          <mxGeometry y="26" width="250" height="26" as="geometry" />
        </mxCell>
        <mxCell id="fC1UOFZK2BJRZbZUkwg1-53" value="" style="line;strokeWidth=1;fillColor=none;align=left;verticalAlign=middle;spacingTop=-1;spacingLeft=3;spacingRight=3;rotatable=0;labelPosition=right;points=[];portConstraint=eastwest;strokeColor=inherit;" parent="fC1UOFZK2BJRZbZUkwg1-51" vertex="1">
          <mxGeometry y="52" width="250" height="8" as="geometry" />
        </mxCell>
        <mxCell id="fC1UOFZK2BJRZbZUkwg1-54" value="&lt;div&gt;handle_event(event: Event)&lt;/div&gt;&lt;div&gt;on_match(pattern: Pattern, event: Event)&lt;/div&gt;+ consumeEvent(event: Event&lt;span style=&quot;color: light-dark(rgb(0, 0, 0), rgb(255, 255, 255)); background-color: transparent;&quot;&gt;)&lt;/span&gt;&lt;div&gt;&lt;span style=&quot;background-color: transparent; color: light-dark(rgb(0, 0, 0), rgb(255, 255, 255));&quot;&gt;+ generateEvent: Event&lt;/span&gt;&lt;/div&gt;" style="text;strokeColor=none;fillColor=none;align=left;verticalAlign=top;spacingLeft=4;spacingRight=4;overflow=hidden;rotatable=0;points=[[0,0.5],[1,0.5]];portConstraint=eastwest;whiteSpace=wrap;html=1;" parent="fC1UOFZK2BJRZbZUkwg1-51" vertex="1">
          <mxGeometry y="60" width="250" height="80" as="geometry" />
        </mxCell>
        <mxCell id="fC1UOFZK2BJRZbZUkwg1-57" style="edgeStyle=orthogonalEdgeStyle;rounded=0;orthogonalLoop=1;jettySize=auto;html=1;exitX=1;exitY=0.5;exitDx=0;exitDy=0;entryX=0;entryY=0.5;entryDx=0;entryDy=0;" parent="1" target="fC1UOFZK2BJRZbZUkwg1-9" edge="1">
          <mxGeometry relative="1" as="geometry">
            <mxPoint x="-310" y="1809.0000000000005" as="sourcePoint" />
          </mxGeometry>
        </mxCell>
        <mxCell id="fC1UOFZK2BJRZbZUkwg1-60" style="edgeStyle=orthogonalEdgeStyle;rounded=0;orthogonalLoop=1;jettySize=auto;html=1;exitX=1;exitY=0.5;exitDx=0;exitDy=0;entryX=-0.016;entryY=0.726;entryDx=0;entryDy=0;entryPerimeter=0;" parent="1" source="fC1UOFZK2BJRZbZUkwg1-2" target="fC1UOFZK2BJRZbZUkwg1-99" edge="1">
          <mxGeometry relative="1" as="geometry">
            <mxPoint x="70" y="1988" as="targetPoint" />
          </mxGeometry>
        </mxCell>
        <mxCell id="fC1UOFZK2BJRZbZUkwg1-113" value="1" style="edgeLabel;html=1;align=center;verticalAlign=middle;resizable=0;points=[];" parent="fC1UOFZK2BJRZbZUkwg1-60" vertex="1" connectable="0">
          <mxGeometry x="-0.9144" y="-1" relative="1" as="geometry">
            <mxPoint as="offset" />
          </mxGeometry>
        </mxCell>
        <mxCell id="fC1UOFZK2BJRZbZUkwg1-114" value="0..*" style="edgeLabel;html=1;align=center;verticalAlign=middle;resizable=0;points=[];" parent="fC1UOFZK2BJRZbZUkwg1-60" vertex="1" connectable="0">
          <mxGeometry x="0.8724" relative="1" as="geometry">
            <mxPoint as="offset" />
          </mxGeometry>
        </mxCell>
        <mxCell id="fC1UOFZK2BJRZbZUkwg1-70" style="edgeStyle=orthogonalEdgeStyle;rounded=0;orthogonalLoop=1;jettySize=auto;html=1;exitX=0.5;exitY=0;exitDx=0;exitDy=0;entryX=0.463;entryY=1.068;entryDx=0;entryDy=0;entryPerimeter=0;endArrow=diamond;endFill=1;" parent="1" source="fC1UOFZK2BJRZbZUkwg1-37" target="fC1UOFZK2BJRZbZUkwg1-32" edge="1">
          <mxGeometry relative="1" as="geometry">
            <Array as="points">
              <mxPoint x="-290" y="2233" />
            </Array>
          </mxGeometry>
        </mxCell>
        <mxCell id="miDm_Kr4FbOow1UYbC2w-2" value="1" style="edgeLabel;html=1;align=center;verticalAlign=middle;resizable=0;points=[];" vertex="1" connectable="0" parent="fC1UOFZK2BJRZbZUkwg1-70">
          <mxGeometry x="0.4715" relative="1" as="geometry">
            <mxPoint as="offset" />
          </mxGeometry>
        </mxCell>
        <mxCell id="miDm_Kr4FbOow1UYbC2w-3" value="0..*" style="edgeLabel;html=1;align=center;verticalAlign=middle;resizable=0;points=[];" vertex="1" connectable="0" parent="fC1UOFZK2BJRZbZUkwg1-70">
          <mxGeometry x="-0.8086" relative="1" as="geometry">
            <mxPoint as="offset" />
          </mxGeometry>
        </mxCell>
        <mxCell id="fC1UOFZK2BJRZbZUkwg1-72" style="edgeStyle=orthogonalEdgeStyle;rounded=0;orthogonalLoop=1;jettySize=auto;html=1;exitX=0;exitY=0.5;exitDx=0;exitDy=0;entryX=1;entryY=0.5;entryDx=0;entryDy=0;" parent="1" source="fC1UOFZK2BJRZbZUkwg1-18" target="fC1UOFZK2BJRZbZUkwg1-24" edge="1">
          <mxGeometry relative="1" as="geometry">
            <mxPoint x="-860" y="1989" as="targetPoint" />
          </mxGeometry>
        </mxCell>
        <mxCell id="fC1UOFZK2BJRZbZUkwg1-120" value="1" style="edgeLabel;html=1;align=center;verticalAlign=middle;resizable=0;points=[];" parent="fC1UOFZK2BJRZbZUkwg1-72" vertex="1" connectable="0">
          <mxGeometry x="0.5207" relative="1" as="geometry">
            <mxPoint as="offset" />
          </mxGeometry>
        </mxCell>
        <mxCell id="fC1UOFZK2BJRZbZUkwg1-121" value="1" style="edgeLabel;html=1;align=center;verticalAlign=middle;resizable=0;points=[];" parent="fC1UOFZK2BJRZbZUkwg1-72" vertex="1" connectable="0">
          <mxGeometry x="-0.7651" relative="1" as="geometry">
            <mxPoint as="offset" />
          </mxGeometry>
        </mxCell>
        <mxCell id="fC1UOFZK2BJRZbZUkwg1-73" style="edgeStyle=orthogonalEdgeStyle;rounded=0;orthogonalLoop=1;jettySize=auto;html=1;exitX=0.5;exitY=0;exitDx=0;exitDy=0;entryX=0.778;entryY=1.009;entryDx=0;entryDy=0;entryPerimeter=0;" parent="1" source="fC1UOFZK2BJRZbZUkwg1-29" edge="1">
          <mxGeometry relative="1" as="geometry">
            <mxPoint x="-334.3800000000001" y="2080.81" as="targetPoint" />
          </mxGeometry>
        </mxCell>
        <mxCell id="fC1UOFZK2BJRZbZUkwg1-74" style="edgeStyle=orthogonalEdgeStyle;rounded=0;orthogonalLoop=1;jettySize=auto;html=1;exitX=0.5;exitY=0;exitDx=0;exitDy=0;entryX=0.241;entryY=1.005;entryDx=0;entryDy=0;entryPerimeter=0;" parent="1" source="fC1UOFZK2BJRZbZUkwg1-33" target="fC1UOFZK2BJRZbZUkwg1-4" edge="1">
          <mxGeometry relative="1" as="geometry">
            <Array as="points" />
          </mxGeometry>
        </mxCell>
        <mxCell id="fC1UOFZK2BJRZbZUkwg1-75" style="edgeStyle=orthogonalEdgeStyle;rounded=0;orthogonalLoop=1;jettySize=auto;html=1;exitX=1;exitY=0.5;exitDx=0;exitDy=0;entryX=0.004;entryY=-0.293;entryDx=0;entryDy=0;entryPerimeter=0;" parent="1" source="fC1UOFZK2BJRZbZUkwg1-17" target="fC1UOFZK2BJRZbZUkwg1-4" edge="1">
          <mxGeometry relative="1" as="geometry" />
        </mxCell>
        <mxCell id="fC1UOFZK2BJRZbZUkwg1-97" style="edgeStyle=orthogonalEdgeStyle;rounded=0;orthogonalLoop=1;jettySize=auto;html=1;exitX=0.75;exitY=0;exitDx=0;exitDy=0;entryX=1.02;entryY=0.716;entryDx=0;entryDy=0;entryPerimeter=0;" parent="1" source="fC1UOFZK2BJRZbZUkwg1-77" target="fC1UOFZK2BJRZbZUkwg1-99" edge="1">
          <mxGeometry relative="1" as="geometry">
            <mxPoint x="210" y="1988" as="targetPoint" />
          </mxGeometry>
        </mxCell>
        <mxCell id="fC1UOFZK2BJRZbZUkwg1-115" value="1..*" style="edgeLabel;html=1;align=center;verticalAlign=middle;resizable=0;points=[];" parent="fC1UOFZK2BJRZbZUkwg1-97" vertex="1" connectable="0">
          <mxGeometry x="0.6239" y="-1" relative="1" as="geometry">
            <mxPoint as="offset" />
          </mxGeometry>
        </mxCell>
        <mxCell id="fC1UOFZK2BJRZbZUkwg1-116" value="1" style="edgeLabel;html=1;align=center;verticalAlign=middle;resizable=0;points=[];" parent="fC1UOFZK2BJRZbZUkwg1-97" vertex="1" connectable="0">
          <mxGeometry x="-0.8348" y="1" relative="1" as="geometry">
            <mxPoint as="offset" />
          </mxGeometry>
        </mxCell>
        <mxCell id="fC1UOFZK2BJRZbZUkwg1-77" value="Pattern" style="swimlane;fontStyle=1;align=center;verticalAlign=top;childLayout=stackLayout;horizontal=1;startSize=26;horizontalStack=0;resizeParent=1;resizeParentMax=0;resizeLast=0;collapsible=1;marginBottom=0;whiteSpace=wrap;html=1;" parent="1" vertex="1">
          <mxGeometry x="110" y="2224.55" width="220" height="124" as="geometry" />
        </mxCell>
        <mxCell id="fC1UOFZK2BJRZbZUkwg1-78" value="+ pattern_id: str&lt;div&gt;+ expression: str&lt;/div&gt;&lt;div&gt;+description: str&lt;/div&gt;" style="text;strokeColor=none;fillColor=none;align=left;verticalAlign=top;spacingLeft=4;spacingRight=4;overflow=hidden;rotatable=0;points=[[0,0.5],[1,0.5]];portConstraint=eastwest;whiteSpace=wrap;html=1;" parent="fC1UOFZK2BJRZbZUkwg1-77" vertex="1">
          <mxGeometry y="26" width="220" height="64" as="geometry" />
        </mxCell>
        <mxCell id="fC1UOFZK2BJRZbZUkwg1-79" value="" style="line;strokeWidth=1;fillColor=none;align=left;verticalAlign=middle;spacingTop=-1;spacingLeft=3;spacingRight=3;rotatable=0;labelPosition=right;points=[];portConstraint=eastwest;strokeColor=inherit;" parent="fC1UOFZK2BJRZbZUkwg1-77" vertex="1">
          <mxGeometry y="90" width="220" height="8" as="geometry" />
        </mxCell>
        <mxCell id="fC1UOFZK2BJRZbZUkwg1-80" value="+ match( [events: Event]: bool" style="text;strokeColor=none;fillColor=none;align=left;verticalAlign=top;spacingLeft=4;spacingRight=4;overflow=hidden;rotatable=0;points=[[0,0.5],[1,0.5]];portConstraint=eastwest;whiteSpace=wrap;html=1;" parent="fC1UOFZK2BJRZbZUkwg1-77" vertex="1">
          <mxGeometry y="98" width="220" height="26" as="geometry" />
        </mxCell>
        <mxCell id="fC1UOFZK2BJRZbZUkwg1-81" style="edgeStyle=orthogonalEdgeStyle;rounded=0;orthogonalLoop=1;jettySize=auto;html=1;exitX=1;exitY=0.5;exitDx=0;exitDy=0;entryX=0.438;entryY=-0.008;entryDx=0;entryDy=0;entryPerimeter=0;" parent="1" source="fC1UOFZK2BJRZbZUkwg1-52" target="fC1UOFZK2BJRZbZUkwg1-77" edge="1">
          <mxGeometry relative="1" as="geometry">
            <mxPoint x="210" y="2115" as="targetPoint" />
          </mxGeometry>
        </mxCell>
        <mxCell id="miDm_Kr4FbOow1UYbC2w-4" value="0..*" style="edgeLabel;html=1;align=center;verticalAlign=middle;resizable=0;points=[];" vertex="1" connectable="0" parent="fC1UOFZK2BJRZbZUkwg1-81">
          <mxGeometry x="0.7941" y="-1" relative="1" as="geometry">
            <mxPoint as="offset" />
          </mxGeometry>
        </mxCell>
        <mxCell id="miDm_Kr4FbOow1UYbC2w-5" value="1" style="edgeLabel;html=1;align=center;verticalAlign=middle;resizable=0;points=[];" vertex="1" connectable="0" parent="fC1UOFZK2BJRZbZUkwg1-81">
          <mxGeometry x="-0.807" y="1" relative="1" as="geometry">
            <mxPoint as="offset" />
          </mxGeometry>
        </mxCell>
        <mxCell id="fC1UOFZK2BJRZbZUkwg1-91" style="edgeStyle=orthogonalEdgeStyle;rounded=0;orthogonalLoop=1;jettySize=auto;html=1;exitX=0.25;exitY=0;exitDx=0;exitDy=0;entryX=1;entryY=0.5;entryDx=0;entryDy=0;endArrow=block;endFill=0;" parent="1" source="fC1UOFZK2BJRZbZUkwg1-82" target="fC1UOFZK2BJRZbZUkwg1-80" edge="1">
          <mxGeometry relative="1" as="geometry" />
        </mxCell>
        <mxCell id="fC1UOFZK2BJRZbZUkwg1-82" value="ComplexEvent" style="swimlane;fontStyle=1;align=center;verticalAlign=top;childLayout=stackLayout;horizontal=1;startSize=26;horizontalStack=0;resizeParent=1;resizeParentMax=0;resizeLast=0;collapsible=1;marginBottom=0;whiteSpace=wrap;html=1;" parent="1" vertex="1">
          <mxGeometry x="380" y="2364.55" width="160" height="78" as="geometry" />
        </mxCell>
        <mxCell id="fC1UOFZK2BJRZbZUkwg1-83" value="+ subpatterns: dict[Pattern]&amp;nbsp;&lt;div&gt;+ operator: str&lt;/div&gt;" style="text;strokeColor=none;fillColor=none;align=left;verticalAlign=top;spacingLeft=4;spacingRight=4;overflow=hidden;rotatable=0;points=[[0,0.5],[1,0.5]];portConstraint=eastwest;whiteSpace=wrap;html=1;" parent="fC1UOFZK2BJRZbZUkwg1-82" vertex="1">
          <mxGeometry y="26" width="160" height="44" as="geometry" />
        </mxCell>
        <mxCell id="fC1UOFZK2BJRZbZUkwg1-84" value="" style="line;strokeWidth=1;fillColor=none;align=left;verticalAlign=middle;spacingTop=-1;spacingLeft=3;spacingRight=3;rotatable=0;labelPosition=right;points=[];portConstraint=eastwest;strokeColor=inherit;" parent="fC1UOFZK2BJRZbZUkwg1-82" vertex="1">
          <mxGeometry y="70" width="160" height="8" as="geometry" />
        </mxCell>
        <mxCell id="fC1UOFZK2BJRZbZUkwg1-86" value="Atomic" style="swimlane;fontStyle=1;align=center;verticalAlign=top;childLayout=stackLayout;horizontal=1;startSize=26;horizontalStack=0;resizeParent=1;resizeParentMax=0;resizeLast=0;collapsible=1;marginBottom=0;whiteSpace=wrap;html=1;" parent="1" vertex="1">
          <mxGeometry x="140" y="2398.55" width="160" height="88" as="geometry" />
        </mxCell>
        <mxCell id="fC1UOFZK2BJRZbZUkwg1-87" value="+ event_field: str&lt;div&gt;+ operation: str&lt;/div&gt;&lt;div&gt;+ threshold: float&lt;/div&gt;" style="text;strokeColor=none;fillColor=none;align=left;verticalAlign=top;spacingLeft=4;spacingRight=4;overflow=hidden;rotatable=0;points=[[0,0.5],[1,0.5]];portConstraint=eastwest;whiteSpace=wrap;html=1;" parent="fC1UOFZK2BJRZbZUkwg1-86" vertex="1">
          <mxGeometry y="26" width="160" height="54" as="geometry" />
        </mxCell>
        <mxCell id="fC1UOFZK2BJRZbZUkwg1-88" value="" style="line;strokeWidth=1;fillColor=none;align=left;verticalAlign=middle;spacingTop=-1;spacingLeft=3;spacingRight=3;rotatable=0;labelPosition=right;points=[];portConstraint=eastwest;strokeColor=inherit;" parent="fC1UOFZK2BJRZbZUkwg1-86" vertex="1">
          <mxGeometry y="80" width="160" height="8" as="geometry" />
        </mxCell>
        <mxCell id="fC1UOFZK2BJRZbZUkwg1-90" style="edgeStyle=orthogonalEdgeStyle;rounded=0;orthogonalLoop=1;jettySize=auto;html=1;exitX=1;exitY=0.5;exitDx=0;exitDy=0;entryX=0.75;entryY=0;entryDx=0;entryDy=0;endArrow=diamond;endFill=1;" parent="1" source="fC1UOFZK2BJRZbZUkwg1-78" target="fC1UOFZK2BJRZbZUkwg1-82" edge="1">
          <mxGeometry relative="1" as="geometry" />
        </mxCell>
        <mxCell id="miDm_Kr4FbOow1UYbC2w-6" value="1" style="edgeLabel;html=1;align=center;verticalAlign=middle;resizable=0;points=[];" vertex="1" connectable="0" parent="fC1UOFZK2BJRZbZUkwg1-90">
          <mxGeometry x="0.8065" y="-1" relative="1" as="geometry">
            <mxPoint as="offset" />
          </mxGeometry>
        </mxCell>
        <mxCell id="miDm_Kr4FbOow1UYbC2w-7" value="1..*" style="edgeLabel;html=1;align=center;verticalAlign=middle;resizable=0;points=[];" vertex="1" connectable="0" parent="fC1UOFZK2BJRZbZUkwg1-90">
          <mxGeometry x="-0.8201" y="2" relative="1" as="geometry">
            <mxPoint as="offset" />
          </mxGeometry>
        </mxCell>
        <mxCell id="fC1UOFZK2BJRZbZUkwg1-92" style="edgeStyle=orthogonalEdgeStyle;rounded=0;orthogonalLoop=1;jettySize=auto;html=1;exitX=0.5;exitY=0;exitDx=0;exitDy=0;entryX=0.483;entryY=1.038;entryDx=0;entryDy=0;entryPerimeter=0;endArrow=block;endFill=0;" parent="1" source="fC1UOFZK2BJRZbZUkwg1-86" target="fC1UOFZK2BJRZbZUkwg1-80" edge="1">
          <mxGeometry relative="1" as="geometry" />
        </mxCell>
        <mxCell id="fC1UOFZK2BJRZbZUkwg1-98" value="Event" style="swimlane;fontStyle=1;align=center;verticalAlign=top;childLayout=stackLayout;horizontal=1;startSize=26;horizontalStack=0;resizeParent=1;resizeParentMax=0;resizeLast=0;collapsible=1;marginBottom=0;whiteSpace=wrap;html=1;" parent="1" vertex="1">
          <mxGeometry x="70" y="1810" width="160" height="198" as="geometry" />
        </mxCell>
        <mxCell id="fC1UOFZK2BJRZbZUkwg1-99" value="&lt;p&gt;+ stream_id: str&lt;br class=&quot;soft-break&quot;&gt;+&amp;nbsp;timestamp: float&lt;br class=&quot;soft-break&quot;&gt;+&amp;nbsp;datatype: str&lt;br class=&quot;soft-break&quot;&gt;+&amp;nbsp;unit: str&lt;br class=&quot;soft-break&quot;&gt;+&amp;nbsp;value: float&lt;br class=&quot;soft-break&quot;&gt;+&amp;nbsp;observed_value: float&lt;br class=&quot;soft-break&quot;&gt;+&amp;nbsp;imputed_value: float&lt;br class=&quot;soft-break&quot;&gt;+&amp;nbsp;method: str&lt;br class=&quot;soft-break&quot;&gt;+&amp;nbsp;confidence: float&lt;br class=&quot;soft-break&quot;&gt;+&amp;nbsp;extras: dict&lt;/p&gt;" style="text;strokeColor=none;fillColor=none;align=left;verticalAlign=top;spacingLeft=4;spacingRight=4;overflow=hidden;rotatable=0;points=[[0,0.5],[1,0.5]];portConstraint=eastwest;whiteSpace=wrap;html=1;" parent="fC1UOFZK2BJRZbZUkwg1-98" vertex="1">
          <mxGeometry y="26" width="160" height="164" as="geometry" />
        </mxCell>
        <mxCell id="fC1UOFZK2BJRZbZUkwg1-100" value="" style="line;strokeWidth=1;fillColor=none;align=left;verticalAlign=middle;spacingTop=-1;spacingLeft=3;spacingRight=3;rotatable=0;labelPosition=right;points=[];portConstraint=eastwest;strokeColor=inherit;" parent="fC1UOFZK2BJRZbZUkwg1-98" vertex="1">
          <mxGeometry y="190" width="160" height="8" as="geometry" />
        </mxCell>
        <mxCell id="fC1UOFZK2BJRZbZUkwg1-103" value="SimulatedStream" style="swimlane;fontStyle=1;align=center;verticalAlign=top;childLayout=stackLayout;horizontal=1;startSize=26;horizontalStack=0;resizeParent=1;resizeParentMax=0;resizeLast=0;collapsible=1;marginBottom=0;whiteSpace=wrap;html=1;" parent="1" vertex="1">
          <mxGeometry x="-170" y="2405" width="160" height="60" as="geometry" />
        </mxCell>
        <mxCell id="fC1UOFZK2BJRZbZUkwg1-105" value="" style="line;strokeWidth=1;fillColor=none;align=left;verticalAlign=middle;spacingTop=-1;spacingLeft=3;spacingRight=3;rotatable=0;labelPosition=right;points=[];portConstraint=eastwest;strokeColor=inherit;" parent="fC1UOFZK2BJRZbZUkwg1-103" vertex="1">
          <mxGeometry y="26" width="160" height="8" as="geometry" />
        </mxCell>
        <mxCell id="fC1UOFZK2BJRZbZUkwg1-106" value="+ generateRandomEvent()" style="text;strokeColor=none;fillColor=none;align=left;verticalAlign=top;spacingLeft=4;spacingRight=4;overflow=hidden;rotatable=0;points=[[0,0.5],[1,0.5]];portConstraint=eastwest;whiteSpace=wrap;html=1;" parent="fC1UOFZK2BJRZbZUkwg1-103" vertex="1">
          <mxGeometry y="34" width="160" height="26" as="geometry" />
        </mxCell>
        <mxCell id="fC1UOFZK2BJRZbZUkwg1-107" style="edgeStyle=orthogonalEdgeStyle;rounded=0;orthogonalLoop=1;jettySize=auto;html=1;exitX=0.25;exitY=0;exitDx=0;exitDy=0;entryX=1;entryY=0.5;entryDx=0;entryDy=0;endArrow=block;endFill=0;" parent="1" source="fC1UOFZK2BJRZbZUkwg1-103" target="fC1UOFZK2BJRZbZUkwg1-38" edge="1">
          <mxGeometry relative="1" as="geometry">
            <mxPoint x="-150" y="2357" as="sourcePoint" />
          </mxGeometry>
        </mxCell>
        <mxCell id="fC1UOFZK2BJRZbZUkwg1-112" style="edgeStyle=orthogonalEdgeStyle;rounded=0;orthogonalLoop=1;jettySize=auto;html=1;exitX=0.75;exitY=1;exitDx=0;exitDy=0;entryX=0.15;entryY=0.007;entryDx=0;entryDy=0;entryPerimeter=0;" parent="1" source="fC1UOFZK2BJRZbZUkwg1-13" target="fC1UOFZK2BJRZbZUkwg1-1" edge="1">
          <mxGeometry relative="1" as="geometry" />
        </mxCell>
        <mxCell id="fC1UOFZK2BJRZbZUkwg1-123" style="edgeStyle=orthogonalEdgeStyle;rounded=0;orthogonalLoop=1;jettySize=auto;html=1;exitX=0.5;exitY=0;exitDx=0;exitDy=0;entryX=0.443;entryY=1.016;entryDx=0;entryDy=0;entryPerimeter=0;" parent="1" source="fC1UOFZK2BJRZbZUkwg1-1" target="fC1UOFZK2BJRZbZUkwg1-8" edge="1">
          <mxGeometry relative="1" as="geometry" />
        </mxCell>
        <mxCell id="fC1UOFZK2BJRZbZUkwg1-124" style="edgeStyle=orthogonalEdgeStyle;rounded=0;orthogonalLoop=1;jettySize=auto;html=1;exitX=0;exitY=0.25;exitDx=0;exitDy=0;entryX=0.607;entryY=1.005;entryDx=0;entryDy=0;entryPerimeter=0;" parent="1" source="fC1UOFZK2BJRZbZUkwg1-37" target="fC1UOFZK2BJRZbZUkwg1-4" edge="1">
          <mxGeometry relative="1" as="geometry" />
        </mxCell>
        <mxCell id="fC1UOFZK2BJRZbZUkwg1-126" value="&lt;font style=&quot;font-size: 23px;&quot;&gt;UML Plans&lt;/font&gt;" style="text;html=1;align=center;verticalAlign=middle;whiteSpace=wrap;rounded=0;" parent="1" vertex="1">
          <mxGeometry x="-830" y="1720" width="230" height="30" as="geometry" />
        </mxCell>
      </root>
    </mxGraphModel>
  </diagram>
</mxfile>
